<svg viewBox="0 0 349 80" fill="none" xmlns="http://www.w3.org/2000/svg">
  <!-- allo — dark charcoal -->
  <path d="M47.6119 71.2709C42.0471 76.8163 35.4513 79.5891 27.7737 79.5891C20.096 79.5891 13.5519 76.8677 8.14145 71.4763C2.73099 66.0849 0 59.5634 0 51.9126C0 44.262 2.73099 37.7406 8.14145 32.3491C13.5519 26.9576 20.096 24.2362 27.7737 24.2362C35.4513 24.2362 41.9953 26.9576 47.4059 32.3491C52.8163 37.7406 55.5474 44.262 55.5474 51.9126V75.6354C55.5474 76.7137 55.1351 77.638 54.3622 78.4083C53.5892 79.1786 52.6618 79.5891 51.5796 79.5891C50.4974 79.5891 49.57 79.1786 48.7971 78.4083C48.0241 77.638 47.6119 76.7137 47.6119 75.6354V71.2709ZM27.7737 32.1437C22.3117 32.1437 17.6226 34.0949 13.758 37.946C9.89341 41.7972 7.93535 46.4697 7.93535 51.9126C7.93535 57.3557 9.89341 62.0283 13.758 65.8794C17.6226 69.7303 22.3117 71.6817 27.7737 71.6817C33.2357 71.6817 37.9246 69.7303 41.7893 65.8794C45.6541 62.0283 47.6119 57.3557 47.6119 51.9126C47.6119 46.4697 45.6541 41.7972 41.7893 37.946C37.9246 34.0949 33.2872 32.1437 27.7737 32.1437Z" fill="#20272C"/>
  <path d="M98.1098 3.79974V76.0463C98.1098 77.1246 97.6461 78.0489 96.8731 78.8191C96.1002 79.5891 95.018 80 93.8843 80C92.8024 80 92.1839 79.5891 91.411 78.8191C90.638 78.0489 90.535 77.1246 90.535 76.0463V3.79974C90.535 2.77279 90.6895 1.84853 91.4625 1.12965C92.2354 0.410786 93.0598 0 94.142 0C95.2242 0 96.1516 0.359437 96.9246 1.12965C97.749 1.84853 98.1098 2.77279 98.1098 3.79974Z" fill="#20272C"/>
  <path d="M75.4884 3.79974V76.0463C75.4884 77.1246 75.0247 78.0489 74.2518 78.8191C73.4788 79.5891 72.3966 80 71.2632 80C70.1811 80 69.5626 79.5891 68.7899 78.8191C68.017 78.0489 67.9137 77.1246 67.9137 76.0463V3.79974C67.9137 2.77279 68.0685 1.84853 68.8414 1.12965C69.6144 0.410786 70.4388 0 71.5207 0C72.6029 0 73.5303 0.359437 74.3033 1.12965C75.1277 1.84853 75.4884 2.77279 75.4884 3.79974Z" fill="#20272C"/>
  <path d="M166.591 51.9126C166.591 59.5634 163.86 66.0849 158.449 71.4763C153.039 76.8677 146.495 79.5891 138.817 79.5891C131.139 79.5891 124.595 76.8677 119.185 71.4763C113.774 66.0849 111.044 59.5634 111.044 51.9126C111.044 44.262 113.774 37.7406 119.185 32.3491C124.595 26.9576 131.139 24.2362 138.817 24.2362C146.495 24.2362 153.039 26.9576 158.449 32.3491C163.86 37.7406 166.591 44.262 166.591 51.9126ZM138.817 32.1437C133.355 32.1437 128.666 34.0949 124.802 37.946C120.937 41.7972 118.979 46.4697 118.979 51.9126C118.979 57.3557 120.937 62.0283 124.802 65.8794C128.666 69.7303 133.355 71.6817 138.817 71.6817C144.279 71.6817 148.968 69.7303 152.833 65.8794C156.697 62.0283 158.655 57.3557 158.655 51.9126C158.655 46.4697 156.697 41.7972 152.833 37.946C148.968 34.0949 144.279 32.1437 138.817 32.1437Z" fill="#20272C"/>
  <!-- cab — amber orange -->
  <path d="M217.603 66.0334C218.686 66.0334 219.613 66.4443 220.386 67.2143C221.159 67.9846 221.571 68.9089 221.571 69.9872C221.571 71.0654 221.159 72.0411 220.334 72.914C215.233 77.3811 209.204 79.5891 202.248 79.5891C194.57 79.5891 188.026 76.8677 182.616 71.4763C177.205 66.0849 174.474 59.5634 174.474 51.9126C174.474 44.262 177.205 37.7406 182.616 32.3491C188.026 26.9576 194.57 24.2362 202.248 24.2362C209.204 24.2362 215.233 26.4442 220.334 30.9114C221.262 31.7329 221.726 32.76 221.726 33.9923C221.726 35.0706 221.313 35.9949 220.54 36.7651C219.768 37.5354 218.84 37.946 217.758 37.946C216.779 37.946 215.954 37.638 215.233 37.0732C211.523 33.7869 207.195 32.1951 202.248 32.1951C196.786 32.1951 192.097 34.1463 188.232 37.9974C184.368 41.8486 182.41 46.5212 182.41 51.964C182.41 57.4069 184.368 62.0797 188.232 65.9306C192.097 69.7817 196.786 71.7329 202.248 71.7329C207.195 71.7329 211.523 70.1412 215.181 66.9063C215.903 66.29 216.676 66.0334 217.603 66.0334Z" fill="#F5A623"/>
  <path d="M301.387 32.5546C301.439 32.5032 301.542 32.4006 301.593 32.3492C307.006 26.9577 313.548 24.2362 321.226 24.2362C328.904 24.2362 335.449 26.9577 340.859 32.3492C346.268 37.7406 349 44.262 349 51.9126C349 59.5635 346.268 66.0846 340.859 71.4763C335.449 76.8677 328.904 79.5892 321.226 79.5892C313.548 79.5892 307.006 76.8677 301.593 71.4763C296.184 66.0846 293.452 59.5635 293.452 51.9126V4.41594C293.452 3.33766 293.864 2.41338 294.639 1.64316C295.411 0.872944 296.338 0.462158 297.42 0.462158C298.504 0.462158 299.431 0.872944 300.203 1.64316C300.975 2.41338 301.387 3.33766 301.387 4.41594V32.5546ZM321.226 71.6817C326.69 71.6817 331.378 69.7303 335.243 65.8795C339.108 62.0283 341.065 57.3557 341.065 51.9126C341.065 46.4697 339.108 41.7972 335.243 37.946C331.378 34.0949 326.69 32.1437 321.226 32.1437C315.765 32.1437 311.076 34.0949 307.212 37.946C303.347 41.7972 301.387 46.4697 301.387 51.9126C301.387 57.3557 303.295 62.0283 307.212 65.8795C311.076 69.7303 315.713 71.6817 321.226 71.6817Z" fill="#F5A623"/>
  <path d="M277.479 32.4004C272.068 27.0089 265.576 24.3387 257.898 24.3387H234.195C233.113 24.3387 232.186 24.7495 231.413 25.5197C230.64 26.29 230.227 27.2142 230.227 28.2925C230.227 29.3707 230.64 30.295 231.413 31.0653C232.186 31.8356 233.113 32.2464 234.195 32.2464H238.524C238.472 32.2976 238.472 32.2976 238.421 32.349C238.369 32.4004 238.369 32.4004 238.317 32.4519C232.907 37.8433 230.227 44.313 230.227 51.9639C230.227 59.5633 232.907 66.0847 238.317 71.4761C243.728 76.8676 250.221 79.5379 257.898 79.5379C265.524 79.5379 272.068 76.8676 277.479 71.4761C277.53 71.4247 277.53 71.4247 277.582 71.3733C277.633 71.3221 277.633 71.3221 277.685 71.2707V75.5839C277.685 76.6621 278.097 77.5864 278.87 78.3567C279.643 79.127 280.57 79.5379 281.653 79.5379C282.735 79.5379 283.662 79.127 284.435 78.3567C285.208 77.5864 285.62 76.6621 285.62 75.5839V51.9639C285.62 44.313 282.889 37.7919 277.479 32.4004ZM243.985 65.8279C240.121 61.9767 238.214 57.3556 238.214 51.9124C238.214 46.4696 240.121 41.8484 243.985 37.9973C247.85 34.1461 252.488 32.2464 257.95 32.2464C263.412 32.2464 268.049 34.1461 271.914 37.9973C275.778 41.8484 277.685 46.4696 277.685 51.9124C277.685 57.3556 275.778 61.9767 271.914 65.8279C268.049 69.679 263.412 71.5787 257.95 71.5787C252.488 71.5787 247.799 69.679 243.985 65.8279Z" fill="#F5A623"/>
</svg>
