<svg xmlns="http://www.w3.org/2000/svg" viewBox="-0.614 -0.614 112.210 21.677" width="1024" height="198">
  <path d="m 60.6821,20.4503 c 3.3155,0 5.9118,-2.6527 5.9118,-6.038 0,-3.3853 -2.5963,-6.038 -5.9118,-6.038 -3.3155,0 -5.8951,2.6527 -5.8951,6.038 0,3.3853 2.588,6.038 5.8951,6.038 z m 0.0167,-10.0084 c 2.1155,0 3.7085,1.6991 3.7085,3.953 0,2.254 -1.5595,3.9878 -3.7085,3.9878 -2.149,0 -3.7085,-1.6774 -3.7085,-3.9878 0,-2.3103 1.5595,-3.953 3.7085,-3.953 z m -17.6226,9.822 V 8.565 h 1.2751 l 6.3342,7.4511 V 8.565 h 2.1364 V 20.2639 H 51.576 l -6.3634,-7.4684 v 7.4684 z M 71.2138,20.2162 67.0287,8.565 h 2.2995 l 0.046,0.1344 2.542,7.3903 2.8389,-7.529 h 1.2208 l 0.0167,0.0433 2.8222,7.4814 2.5713,-7.5247 h 2.2995 l -4.181,11.6989 h -1.225 l -2.9141,-7.7978 -2.8974,7.7978 h -1.2417 l -0.0167,-0.0477 z" fill="#CA0928"/>
  <path d="M 21.5444,20.2639 V 8.565 h 8.1653 v 2.0329 h -6.0289 v 2.6701 h 5.5021 v 1.9809 h -5.5021 v 2.9821 h 6.0289 v 2.0329 z M 0,20.2639 V 8.565 h 8.019 v 2.0329 H 2.1407 v 2.6917 h 5.385 v 2.0329 h -5.385 v 4.9457 H 0.0042 Z m 16.4729,-4.7983 c 1.5888,-0.4725 2.5629,-1.7382 2.5629,-3.3593 0,-2.0805 -1.6347,-3.5326 -3.9719,-3.5413 h -4.737 v 11.6989 h 2.1365 v -4.6033 h 1.71 l 2.9475,4.6033 h 2.4668 z m -4.0095,-1.8335 v -3.0472 h 2.5545 c 1.1289,0 1.8313,0.5895 1.8313,1.5431 0,0.9536 -0.6857,1.5084 -1.8313,1.5084 h -2.5545 z m 19.7298,6.6361 V 8.5694 h 8.1654 v 2.0328 h -6.0289 v 2.6701 h 5.5021 v 1.9809 h -5.5021 v 2.9821 h 6.0289 v 2.0329 z" fill="#CA0928"/>
  <path d="M 107.3412,0 94.0162,13.8488 V 6.09 L 86.1774,0 h -0.004 -4.0429 l 0.0209,0.0173 9.215,7.18226 v 13.125 0.026 l 0.012,-0.0174 L 110.9664,0.0173 110.9834,0 Z" fill="#CA0928"/>
</svg>
