<?xml version="1.0" encoding="UTF-8"?>
<svg xmlns="http://www.w3.org/2000/svg" xmlns:xlink="http://www.w3.org/1999/xlink" width="352.053pt" height="141.597pt" viewBox="0 0 352.053 141.597" version="1.2">
<g id="surface1">
<path style=" stroke:none;fill-rule:nonzero;fill:rgb(100%,100%,100%);fill-opacity:1;" d="M 309.183594 88.820312 L 309.183594 82.347656 L 310.398438 82.347656 L 310.398438 90.4375 L 308.957031 90.4375 L 303.519531 83.964844 L 303.519531 90.4375 L 302.304688 90.4375 L 302.304688 82.347656 L 303.742188 82.347656 Z M 309.183594 88.820312 "/>
<path style=" stroke:none;fill-rule:nonzero;fill:rgb(100%,100%,100%);fill-opacity:1;" d="M 292.964844 89.222656 L 298.132812 89.222656 C 298.203125 89.222656 298.257812 89.199219 298.308594 89.152344 C 298.355469 89.101562 298.378906 89.042969 298.378906 88.976562 L 298.378906 83.808594 C 298.378906 83.738281 298.355469 83.679688 298.308594 83.632812 C 298.257812 83.582031 298.203125 83.558594 298.132812 83.558594 L 292.964844 83.558594 C 292.894531 83.558594 292.835938 83.582031 292.789062 83.632812 C 292.738281 83.679688 292.714844 83.738281 292.714844 83.808594 L 292.714844 88.976562 C 292.714844 89.042969 292.738281 89.101562 292.789062 89.152344 C 292.835938 89.199219 292.894531 89.222656 292.964844 89.222656 M 292.964844 82.347656 L 298.132812 82.347656 C 298.539062 82.347656 298.882812 82.488281 299.167969 82.773438 C 299.453125 83.058594 299.59375 83.402344 299.59375 83.808594 L 299.59375 88.976562 C 299.59375 89.378906 299.453125 89.726562 299.167969 90.011719 C 298.882812 90.296875 298.539062 90.4375 298.132812 90.4375 L 292.964844 90.4375 C 292.558594 90.4375 292.214844 90.296875 291.929688 90.011719 C 291.644531 89.726562 291.503906 89.378906 291.503906 88.976562 L 291.503906 83.808594 C 291.503906 83.402344 291.644531 83.058594 291.929688 82.773438 C 292.214844 82.488281 292.558594 82.347656 292.964844 82.347656 "/>
<path style=" stroke:none;fill-rule:nonzero;fill:rgb(100%,100%,100%);fill-opacity:1;" d="M 287.589844 82.34375 L 288.804688 82.34375 L 288.804688 90.4375 L 287.589844 90.4375 Z M 287.589844 82.34375 "/>
<path style=" stroke:none;fill-rule:nonzero;fill:rgb(100%,100%,100%);fill-opacity:1;" d="M 277.003906 82.34375 L 285.097656 82.34375 L 285.097656 83.558594 L 281.660156 83.558594 L 281.660156 90.4375 L 280.445312 90.4375 L 280.445312 83.558594 L 277.003906 83.558594 Z M 277.003906 82.34375 "/>
<path style=" stroke:none;fill-rule:nonzero;fill:rgb(100%,100%,100%);fill-opacity:1;" d="M 267.621094 86.390625 L 273.289062 86.390625 L 273.289062 83.804688 C 273.289062 83.738281 273.261719 83.679688 273.214844 83.632812 C 273.164062 83.582031 273.105469 83.558594 273.039062 83.558594 L 267.871094 83.558594 C 267.804688 83.558594 267.746094 83.582031 267.695312 83.632812 C 267.648438 83.679688 267.621094 83.738281 267.621094 83.804688 Z M 267.871094 82.34375 L 273.039062 82.34375 C 273.445312 82.34375 273.789062 82.488281 274.074219 82.773438 C 274.359375 83.058594 274.5 83.402344 274.5 83.804688 L 274.5 90.4375 L 273.289062 90.4375 L 273.289062 87.605469 L 267.621094 87.605469 L 267.621094 90.4375 L 266.40625 90.4375 L 266.40625 83.804688 C 266.40625 83.402344 266.550781 83.058594 266.835938 82.773438 C 267.121094 82.488281 267.464844 82.34375 267.871094 82.34375 "/>
<path style=" stroke:none;fill-rule:nonzero;fill:rgb(100%,100%,100%);fill-opacity:1;" d="M 263.730469 83.558594 L 257.121094 83.558594 C 257.050781 83.558594 256.996094 83.582031 256.945312 83.632812 C 256.898438 83.679688 256.875 83.738281 256.875 83.808594 L 256.875 88.976562 C 256.875 89.042969 256.898438 89.101562 256.945312 89.152344 C 256.996094 89.199219 257.050781 89.222656 257.121094 89.222656 L 263.730469 89.222656 L 263.730469 90.4375 L 257.121094 90.4375 C 256.714844 90.4375 256.371094 90.296875 256.085938 90.011719 C 255.800781 89.726562 255.660156 89.378906 255.660156 88.976562 L 255.660156 83.808594 C 255.660156 83.402344 255.800781 83.058594 256.085938 82.773438 C 256.371094 82.488281 256.714844 82.347656 257.121094 82.347656 L 263.730469 82.347656 Z M 263.730469 83.558594 "/>
<path style=" stroke:none;fill-rule:nonzero;fill:rgb(100%,100%,100%);fill-opacity:1;" d="M 246.324219 89.222656 L 251.496094 89.222656 C 251.5625 89.222656 251.621094 89.199219 251.667969 89.152344 C 251.71875 89.101562 251.742188 89.042969 251.742188 88.976562 L 251.742188 83.808594 C 251.742188 83.738281 251.71875 83.679688 251.667969 83.632812 C 251.621094 83.582031 251.5625 83.558594 251.496094 83.558594 L 246.324219 83.558594 C 246.257812 83.558594 246.199219 83.582031 246.148438 83.632812 C 246.101562 83.679688 246.074219 83.738281 246.074219 83.808594 L 246.074219 88.976562 C 246.074219 89.042969 246.101562 89.101562 246.148438 89.152344 C 246.199219 89.199219 246.257812 89.222656 246.324219 89.222656 M 246.324219 82.347656 L 251.496094 82.347656 C 251.898438 82.347656 252.242188 82.488281 252.527344 82.773438 C 252.8125 83.058594 252.957031 83.402344 252.957031 83.808594 L 252.957031 88.976562 C 252.957031 89.378906 252.8125 89.726562 252.527344 90.011719 C 252.242188 90.296875 251.898438 90.4375 251.496094 90.4375 L 246.324219 90.4375 C 245.917969 90.4375 245.574219 90.296875 245.289062 90.011719 C 245.007812 89.726562 244.863281 89.378906 244.863281 88.976562 L 244.863281 83.808594 C 244.863281 83.402344 245.007812 83.058594 245.289062 82.773438 C 245.574219 82.488281 245.917969 82.347656 246.324219 82.347656 "/>
<path style=" stroke:none;fill-rule:nonzero;fill:rgb(100%,100%,100%);fill-opacity:1;" d="M 234.398438 90.4375 L 234.398438 82.335938 L 235.613281 82.335938 L 235.613281 89.222656 L 242.492188 89.222656 L 242.492188 90.4375 Z M 234.398438 90.4375 "/>
<path style=" stroke:none;fill-rule:nonzero;fill:rgb(100%,100%,100%);fill-opacity:1;" d="M 227.488281 82.34375 L 227.488281 83.558594 L 221.28125 83.558594 L 221.28125 85.785156 L 226.273438 85.785156 L 226.273438 87 L 221.28125 87 L 221.28125 89.222656 L 227.488281 89.222656 L 227.488281 90.4375 L 220.066406 90.4375 L 220.066406 82.34375 Z M 227.488281 82.34375 "/>
<path style=" stroke:none;fill-rule:nonzero;fill:rgb(100%,100%,100%);fill-opacity:1;" d="M 216.121094 88.976562 L 216.121094 83.808594 C 216.121094 83.738281 216.097656 83.679688 216.046875 83.632812 C 216 83.582031 215.941406 83.558594 215.875 83.558594 L 210.707031 83.558594 C 210.636719 83.558594 210.578125 83.582031 210.53125 83.632812 C 210.480469 83.679688 210.457031 83.738281 210.457031 83.808594 L 210.457031 88.976562 C 210.457031 89.046875 210.480469 89.101562 210.53125 89.152344 C 210.578125 89.199219 210.636719 89.222656 210.707031 89.222656 L 215.875 89.222656 C 215.941406 89.222656 216 89.199219 216.046875 89.152344 C 216.097656 89.101562 216.121094 89.046875 216.121094 88.976562 M 209.242188 82.347656 L 215.875 82.347656 C 216.277344 82.347656 216.625 82.488281 216.90625 82.773438 C 217.191406 83.058594 217.335938 83.402344 217.335938 83.808594 L 217.335938 88.976562 C 217.335938 89.382812 217.191406 89.726562 216.90625 90.011719 C 216.625 90.296875 216.277344 90.4375 215.875 90.4375 L 209.242188 90.4375 Z M 209.242188 82.347656 "/>
<path style=" stroke:none;fill-rule:nonzero;fill:rgb(100%,100%,100%);fill-opacity:1;" d="M 201.015625 88.820312 L 201.015625 82.347656 L 202.230469 82.347656 L 202.230469 90.4375 L 200.789062 90.4375 L 195.351562 83.964844 L 195.351562 90.4375 L 194.136719 90.4375 L 194.136719 82.347656 L 195.578125 82.347656 Z M 201.015625 88.820312 "/>
<path style=" stroke:none;fill-rule:nonzero;fill:rgb(100%,100%,100%);fill-opacity:1;" d="M 184.796875 89.222656 L 189.96875 89.222656 C 190.035156 89.222656 190.089844 89.199219 190.140625 89.152344 C 190.191406 89.101562 190.214844 89.042969 190.214844 88.976562 L 190.214844 83.808594 C 190.214844 83.738281 190.191406 83.679688 190.140625 83.632812 C 190.089844 83.582031 190.035156 83.558594 189.96875 83.558594 L 184.796875 83.558594 C 184.730469 83.558594 184.671875 83.582031 184.621094 83.632812 C 184.574219 83.679688 184.546875 83.738281 184.546875 83.808594 L 184.546875 88.976562 C 184.546875 89.042969 184.574219 89.101562 184.621094 89.152344 C 184.671875 89.199219 184.730469 89.222656 184.796875 89.222656 M 184.796875 82.347656 L 189.96875 82.347656 C 190.371094 82.347656 190.714844 82.488281 191 82.773438 C 191.285156 83.058594 191.425781 83.402344 191.425781 83.808594 L 191.425781 88.976562 C 191.425781 89.378906 191.285156 89.726562 191 90.011719 C 190.714844 90.296875 190.371094 90.4375 189.96875 90.4375 L 184.796875 90.4375 C 184.390625 90.4375 184.046875 90.296875 183.761719 90.011719 C 183.476562 89.726562 183.335938 89.378906 183.335938 88.976562 L 183.335938 83.808594 C 183.335938 83.402344 183.476562 83.058594 183.761719 82.773438 C 184.046875 82.488281 184.390625 82.347656 184.796875 82.347656 "/>
<path style=" stroke:none;fill-rule:nonzero;fill:rgb(100%,100%,100%);fill-opacity:1;" d="M 179.425781 82.34375 L 180.636719 82.34375 L 180.636719 90.4375 L 179.425781 90.4375 Z M 179.425781 82.34375 "/>
<path style=" stroke:none;fill-rule:nonzero;fill:rgb(100%,100%,100%);fill-opacity:1;" d="M 168.835938 82.34375 L 176.929688 82.34375 L 176.929688 83.558594 L 173.492188 83.558594 L 173.492188 90.4375 L 172.277344 90.4375 L 172.277344 83.558594 L 168.835938 83.558594 Z M 168.835938 82.34375 "/>
<path style=" stroke:none;fill-rule:nonzero;fill:rgb(100%,100%,100%);fill-opacity:1;" d="M 165.136719 88.976562 L 165.136719 82.347656 L 166.351562 82.347656 L 166.351562 88.976562 C 166.351562 89.382812 166.210938 89.726562 165.925781 90.011719 C 165.640625 90.296875 165.296875 90.4375 164.890625 90.4375 L 159.722656 90.4375 C 159.316406 90.4375 158.972656 90.296875 158.6875 90.011719 C 158.402344 89.726562 158.257812 89.382812 158.257812 88.976562 L 158.257812 82.347656 L 159.472656 82.347656 L 159.472656 88.976562 C 159.472656 89.046875 159.5 89.101562 159.546875 89.152344 C 159.59375 89.199219 159.652344 89.222656 159.722656 89.222656 L 164.890625 89.222656 C 164.960938 89.222656 165.015625 89.199219 165.0625 89.152344 C 165.113281 89.101562 165.136719 89.046875 165.136719 88.976562 "/>
<path style=" stroke:none;fill-rule:nonzero;fill:rgb(100%,100%,100%);fill-opacity:1;" d="M 147.796875 90.4375 L 147.796875 82.335938 L 149.007812 82.335938 L 149.007812 89.222656 L 155.890625 89.222656 L 155.890625 90.4375 Z M 147.796875 90.4375 "/>
<path style=" stroke:none;fill-rule:nonzero;fill:rgb(100%,100%,100%);fill-opacity:1;" d="M 138.449219 89.222656 L 143.621094 89.222656 C 143.6875 89.222656 143.746094 89.199219 143.792969 89.152344 C 143.84375 89.101562 143.867188 89.042969 143.867188 88.976562 L 143.867188 83.808594 C 143.867188 83.738281 143.84375 83.679688 143.792969 83.632812 C 143.746094 83.582031 143.6875 83.558594 143.621094 83.558594 L 138.449219 83.558594 C 138.382812 83.558594 138.324219 83.582031 138.277344 83.632812 C 138.226562 83.679688 138.203125 83.738281 138.203125 83.808594 L 138.203125 88.976562 C 138.203125 89.042969 138.226562 89.101562 138.277344 89.152344 C 138.324219 89.199219 138.382812 89.222656 138.449219 89.222656 M 138.449219 82.347656 L 143.621094 82.347656 C 144.027344 82.347656 144.371094 82.488281 144.65625 82.773438 C 144.941406 83.058594 145.082031 83.402344 145.082031 83.808594 L 145.082031 88.976562 C 145.082031 89.378906 144.941406 89.726562 144.65625 90.011719 C 144.371094 90.296875 144.027344 90.4375 143.621094 90.4375 L 138.449219 90.4375 C 138.046875 90.4375 137.699219 90.296875 137.417969 90.011719 C 137.132812 89.726562 136.988281 89.378906 136.988281 88.976562 L 136.988281 83.808594 C 136.988281 83.402344 137.132812 83.058594 137.417969 82.773438 C 137.699219 82.488281 138.046875 82.347656 138.449219 82.347656 "/>
<path style=" stroke:none;fill-rule:nonzero;fill:rgb(100%,100%,100%);fill-opacity:1;" d="M 134.320312 83.804688 L 134.320312 84.277344 L 133.105469 84.277344 L 133.105469 83.804688 C 133.105469 83.738281 133.082031 83.679688 133.03125 83.632812 C 132.984375 83.582031 132.929688 83.558594 132.859375 83.558594 L 127.691406 83.558594 C 127.621094 83.558594 127.5625 83.582031 127.515625 83.632812 C 127.46875 83.679688 127.441406 83.738281 127.441406 83.804688 L 127.441406 85.539062 C 127.441406 85.605469 127.46875 85.664062 127.515625 85.710938 C 127.5625 85.761719 127.621094 85.785156 127.691406 85.785156 L 132.859375 85.785156 C 133.265625 85.785156 133.609375 85.925781 133.894531 86.210938 C 134.179688 86.496094 134.320312 86.84375 134.320312 87.246094 L 134.320312 88.976562 C 134.320312 89.382812 134.179688 89.726562 133.894531 90.011719 C 133.609375 90.296875 133.265625 90.4375 132.859375 90.4375 L 127.691406 90.4375 C 127.285156 90.4375 126.941406 90.296875 126.65625 90.011719 C 126.371094 89.726562 126.230469 89.382812 126.230469 88.976562 L 126.230469 88.503906 L 127.441406 88.503906 L 127.441406 88.976562 C 127.441406 89.042969 127.46875 89.101562 127.515625 89.152344 C 127.5625 89.199219 127.621094 89.222656 127.691406 89.222656 L 132.859375 89.222656 C 132.929688 89.222656 132.984375 89.199219 133.03125 89.152344 C 133.082031 89.101562 133.105469 89.042969 133.105469 88.976562 L 133.105469 87.246094 C 133.105469 87.179688 133.082031 87.121094 133.03125 87.070312 C 132.984375 87.023438 132.929688 87 132.859375 87 L 127.691406 87 C 127.285156 87 126.941406 86.855469 126.65625 86.570312 C 126.371094 86.285156 126.230469 85.941406 126.230469 85.539062 L 126.230469 83.804688 C 126.230469 83.402344 126.371094 83.058594 126.65625 82.773438 C 126.941406 82.488281 127.285156 82.347656 127.691406 82.347656 L 132.859375 82.347656 C 133.265625 82.347656 133.609375 82.488281 133.894531 82.773438 C 134.179688 83.058594 134.320312 83.402344 134.320312 83.804688 "/>
<path style=" stroke:none;fill-rule:nonzero;fill:rgb(100%,100%,100%);fill-opacity:1;" d="M 312.191406 55.492188 L 312.191406 50.757812 L 288.457031 50.757812 L 288.457031 76.570312 L 312.191406 76.570312 L 312.191406 71.835938 L 293.226562 71.835938 L 293.226562 66.03125 L 308.273438 66.03125 L 308.273438 61.296875 L 293.226562 61.296875 L 293.226562 55.492188 Z M 312.191406 55.492188 "/>
<path style=" stroke:none;fill-rule:nonzero;fill:rgb(100%,100%,100%);fill-opacity:1;" d="M 280.746094 71.585938 L 280.746094 55.742188 C 280.746094 55.574219 280.660156 55.492188 280.496094 55.492188 L 264.683594 55.492188 C 264.519531 55.492188 264.433594 55.574219 264.433594 55.742188 L 264.433594 71.585938 C 264.433594 71.753906 264.519531 71.835938 264.683594 71.835938 L 280.496094 71.835938 C 280.660156 71.835938 280.746094 71.753906 280.746094 71.585938 M 259.703125 50.757812 L 280.496094 50.757812 C 281.878906 50.757812 283.0625 51.242188 284.042969 52.207031 C 285.023438 53.175781 285.515625 54.355469 285.515625 55.742188 L 285.515625 71.585938 C 285.515625 72.972656 285.023438 74.148438 284.042969 75.117188 C 283.0625 76.085938 281.878906 76.570312 280.496094 76.570312 L 259.703125 76.570312 Z M 259.703125 50.757812 "/>
<path style=" stroke:none;fill-rule:nonzero;fill:rgb(100%,100%,100%);fill-opacity:1;" d="M 250.953125 50.757812 L 255.6875 50.757812 L 255.6875 76.570312 L 250.953125 76.570312 Z M 250.953125 50.757812 "/>
<path style=" stroke:none;fill-rule:nonzero;fill:rgb(100%,100%,100%);fill-opacity:1;" d="M 226.414062 62.980469 L 242.222656 62.980469 C 242.394531 62.980469 242.476562 62.898438 242.476562 62.730469 L 242.476562 55.777344 C 242.476562 55.609375 242.394531 55.523438 242.222656 55.523438 L 226.414062 55.523438 C 226.25 55.523438 226.164062 55.609375 226.164062 55.777344 L 226.164062 62.730469 C 226.164062 62.898438 226.25 62.980469 226.414062 62.980469 M 247.246094 55.777344 L 247.246094 62.730469 C 247.246094 64.09375 246.753906 65.265625 245.773438 66.246094 C 244.792969 67.226562 243.613281 67.714844 242.222656 67.714844 L 240.828125 67.714844 L 247.246094 75.351562 L 247.246094 76.570312 L 242.082031 76.570312 L 234.625 67.714844 L 226.164062 67.714844 L 226.164062 76.570312 L 221.433594 76.570312 L 221.433594 50.792969 L 242.222656 50.792969 C 243.613281 50.792969 244.792969 51.285156 245.773438 52.265625 C 246.753906 53.242188 247.246094 54.414062 247.246094 55.777344 "/>
<path style=" stroke:none;fill-rule:nonzero;fill:rgb(100%,100%,100%);fill-opacity:1;" d="M 185.761719 71.835938 L 201.605469 71.835938 C 201.75 71.835938 201.824219 71.753906 201.824219 71.585938 L 201.824219 55.742188 C 201.824219 55.574219 201.75 55.492188 201.605469 55.492188 L 185.761719 55.492188 C 185.59375 55.492188 185.511719 55.574219 185.511719 55.742188 L 185.511719 71.585938 C 185.511719 71.753906 185.59375 71.835938 185.761719 71.835938 M 185.761719 50.757812 L 201.605469 50.757812 C 202.96875 50.757812 204.140625 51.242188 205.121094 52.207031 C 206.101562 53.175781 206.59375 54.355469 206.59375 55.742188 L 206.59375 71.585938 C 206.59375 72.972656 206.101562 74.148438 205.121094 75.117188 C 204.140625 76.085938 202.96875 76.570312 201.605469 76.570312 L 185.761719 76.570312 C 184.375 76.570312 183.199219 76.085938 182.230469 75.117188 C 181.261719 74.148438 180.777344 72.972656 180.777344 71.585938 L 180.777344 55.742188 C 180.777344 54.355469 181.261719 53.175781 182.230469 52.207031 C 183.199219 51.242188 184.375 50.757812 185.761719 50.757812 "/>
<path style=" stroke:none;fill-rule:nonzero;fill:rgb(100%,100%,100%);fill-opacity:1;" d="M 178.242188 55.492188 L 157.484375 55.492188 C 157.316406 55.492188 157.234375 55.574219 157.234375 55.742188 L 157.234375 71.585938 C 157.234375 71.753906 157.316406 71.835938 157.484375 71.835938 L 178.242188 71.835938 L 178.242188 76.570312 L 157.484375 76.570312 C 156.097656 76.570312 154.917969 76.085938 153.953125 75.117188 C 152.984375 74.148438 152.5 72.972656 152.5 71.585938 L 152.5 55.742188 C 152.5 54.355469 152.984375 53.175781 153.953125 52.207031 C 154.917969 51.242188 156.097656 50.757812 157.484375 50.757812 L 178.242188 50.757812 Z M 178.242188 55.492188 "/>
<path style=" stroke:none;fill-rule:nonzero;fill:rgb(100%,100%,100%);fill-opacity:1;" d="M 149.960938 55.492188 L 149.960938 50.757812 L 126.230469 50.757812 L 126.230469 76.570312 L 149.960938 76.570312 L 149.960938 71.835938 L 130.996094 71.835938 L 130.996094 66.03125 L 146.042969 66.03125 L 146.042969 61.296875 L 130.996094 61.296875 L 130.996094 55.492188 Z M 149.960938 55.492188 "/>
<path style=" stroke:none;fill-rule:nonzero;fill:rgb(2.778625%,63.247681%,90.135193%);fill-opacity:1;" d="M 52.003906 90.371094 L 52.003906 55.175781 L 87.199219 90.371094 Z M 91.546875 50.824219 L 91.546875 67.523438 L 73.050781 67.523438 L 56.351562 50.824219 Z M 104.632812 99.105469 L 79.199219 73.675781 L 97.699219 73.675781 L 97.699219 44.675781 L 50.203125 44.675781 L 43.265625 37.738281 L 38.917969 42.085938 L 45.851562 49.023438 L 45.851562 96.523438 L 93.351562 96.523438 L 100.285156 103.457031 Z M 104.632812 99.105469 "/>
</g>
</svg>
