<?xml version="1.0" encoding="UTF-8"?>
<svg xmlns="http://www.w3.org/2000/svg" width="352.053" height="78" viewBox="0 33 352.053 77" version="1.2">
<g id="surface1">
<!-- ECO RIDE lettering -->
<path style=" stroke:none;fill-rule:nonzero;fill:rgb(13.729858%,12.159729%,12.548828%);fill-opacity:1;" d="M 312.191406 55.492188 L 312.191406 50.757812 L 288.457031 50.757812 L 288.457031 76.570312 L 312.191406 76.570312 L 312.191406 71.835938 L 293.226562 71.835938 L 293.226562 66.03125 L 308.273438 66.03125 L 308.273438 61.296875 L 293.226562 61.296875 L 293.226562 55.492188 Z M 312.191406 55.492188 "/>
<path style=" stroke:none;fill-rule:nonzero;fill:rgb(13.729858%,12.159729%,12.548828%);fill-opacity:1;" d="M 280.746094 71.585938 L 280.746094 55.742188 C 280.746094 55.574219 280.660156 55.492188 280.496094 55.492188 L 264.683594 55.492188 C 264.519531 55.492188 264.433594 55.574219 264.433594 55.742188 L 264.433594 71.585938 C 264.433594 71.753906 264.519531 71.835938 264.683594 71.835938 L 280.496094 71.835938 C 280.660156 71.835938 280.746094 71.753906 280.746094 71.585938 M 259.703125 50.757812 L 280.496094 50.757812 C 281.878906 50.757812 283.0625 51.242188 284.042969 52.207031 C 285.023438 53.175781 285.515625 54.355469 285.515625 55.742188 L 285.515625 71.585938 C 285.515625 72.972656 285.023438 74.148438 284.042969 75.117188 C 283.0625 76.085938 281.878906 76.570312 280.496094 76.570312 L 259.703125 76.570312 Z M 259.703125 50.757812 "/>
<path style=" stroke:none;fill-rule:nonzero;fill:rgb(13.729858%,12.159729%,12.548828%);fill-opacity:1;" d="M 250.953125 50.757812 L 255.6875 50.757812 L 255.6875 76.570312 L 250.953125 76.570312 Z M 250.953125 50.757812 "/>
<path style=" stroke:none;fill-rule:nonzero;fill:rgb(13.729858%,12.159729%,12.548828%);fill-opacity:1;" d="M 226.414062 62.980469 L 242.222656 62.980469 C 242.394531 62.980469 242.476562 62.898438 242.476562 62.730469 L 242.476562 55.777344 C 242.476562 55.609375 242.394531 55.523438 242.222656 55.523438 L 226.414062 55.523438 C 226.25 55.523438 226.164062 55.609375 226.164062 55.777344 L 226.164062 62.730469 C 226.164062 62.898438 226.25 62.980469 226.414062 62.980469 M 247.246094 55.777344 L 247.246094 62.730469 C 247.246094 64.09375 246.753906 65.265625 245.773438 66.246094 C 244.792969 67.226562 243.613281 67.714844 242.222656 67.714844 L 240.828125 67.714844 L 247.246094 75.351562 L 247.246094 76.570312 L 242.082031 76.570312 L 234.625 67.714844 L 226.164062 67.714844 L 226.164062 76.570312 L 221.433594 76.570312 L 221.433594 50.792969 L 242.222656 50.792969 C 243.613281 50.792969 244.792969 51.285156 245.773438 52.265625 C 246.753906 53.242188 247.246094 54.414062 247.246094 55.777344 "/>
<path style=" stroke:none;fill-rule:nonzero;fill:rgb(13.729858%,12.159729%,12.548828%);fill-opacity:1;" d="M 185.761719 71.835938 L 201.605469 71.835938 C 201.75 71.835938 201.824219 71.753906 201.824219 71.585938 L 201.824219 55.742188 C 201.824219 55.574219 201.75 55.492188 201.605469 55.492188 L 185.761719 55.492188 C 185.59375 55.492188 185.511719 55.574219 185.511719 55.742188 L 185.511719 71.585938 C 185.511719 71.753938 185.59375 71.835938 185.761719 71.835938 M 185.761719 50.757812 L 201.605469 50.757812 C 202.96875 50.757812 204.140625 51.242188 205.121094 52.207031 C 206.101562 53.175781 206.59375 54.355469 206.59375 55.742188 L 206.59375 71.585938 C 206.59375 72.972656 206.101562 74.148438 205.121094 75.117188 C 204.140625 76.085938 202.96875 76.570312 201.605469 76.570312 L 185.761719 76.570312 C 184.375 76.570312 183.199219 76.085938 182.230469 75.117188 C 181.261719 74.148438 180.777344 72.972656 180.777344 71.585938 L 180.777344 55.742188 C 180.777344 54.355469 181.261719 53.175781 182.230469 52.207031 C 183.199219 51.242188 184.375 50.757812 185.761719 50.757812 "/>
<path style=" stroke:none;fill-rule:nonzero;fill:rgb(13.729858%,12.159729%,12.548828%);fill-opacity:1;" d="M 178.242188 55.492188 L 157.484375 55.492188 C 157.316406 55.492188 157.234375 55.574219 157.234375 55.742188 L 157.234375 71.585938 C 157.234375 71.753906 157.316406 71.835938 157.484375 71.835938 L 178.242188 71.835938 L 178.242188 76.570312 L 157.484375 76.570312 C 156.097656 76.570312 154.917969 76.085938 153.953125 75.117188 C 152.984375 74.148438 152.5 72.972656 152.5 71.585938 L 152.5 55.742188 C 152.5 54.355469 152.984375 53.175781 153.953125 52.207031 C 154.917969 51.242188 156.097656 50.757812 157.484375 50.757812 L 178.242188 50.757812 Z M 178.242188 55.492188 "/>
<path style=" stroke:none;fill-rule:nonzero;fill:rgb(13.729858%,12.159729%,12.548828%);fill-opacity:1;" d="M 149.960938 55.492188 L 149.960938 50.757812 L 126.230469 50.757812 L 126.230469 76.570312 L 149.960938 76.570312 L 149.960938 71.835938 L 130.996094 71.835938 L 130.996094 66.03125 L 146.042969 66.03125 L 146.042969 61.296875 L 130.996094 61.296875 L 130.996094 55.492188 Z M 149.960938 55.492188 "/>
<!-- Blue icon -->
<path style=" stroke:none;fill-rule:nonzero;fill:rgb(2.778625%,63.247681%,90.135193%);fill-opacity:1;" d="M 52.003906 90.371094 L 52.003906 55.175781 L 87.199219 90.371094 Z M 91.546875 50.824219 L 91.546875 67.523438 L 73.050781 67.523438 L 56.351562 50.824219 Z M 104.632812 99.105469 L 79.199219 73.675781 L 97.699219 73.675781 L 97.699219 44.675781 L 50.203125 44.675781 L 43.265625 37.738281 L 38.917969 42.085938 L 45.851562 49.023438 L 45.851562 96.523438 L 93.351562 96.523438 L 100.285156 103.457031 Z M 104.632812 99.105469 "/>
</g>
</svg>
